<svg width="135" height="202" viewBox="0 0 135 202" fill="none" xmlns="http://www.w3.org/2000/svg">
<path d="M61.5829 111.852H73.1585L82.5927 201.962H52L61.5829 111.852Z" fill="#93642D"/>
<path d="M61.5 111.852H73L78 160.352H56.5L61.5 111.852Z" fill="#714D22"/>
<path d="M43.4326 45.0034C56.8653 45.0035 67.7549 55.8929 67.7549 69.3257V71.063C67.7549 71.9761 67.7015 72.8771 67.6035 73.7641C77.7278 76.7056 85.1279 86.0494 85.1279 97.1225V98.8598C85.1279 112.293 74.2384 123.182 60.8057 123.182C53.5404 123.182 47.0202 119.995 42.5635 114.945C38.1067 119.995 31.5873 123.182 24.3223 123.182C10.8895 123.182 6.13761e-05 112.293 0 98.8598V97.1225C0 85.4411 8.2354 75.6842 19.2168 73.3384C19.1473 72.5892 19.1104 71.8303 19.1104 71.063V69.3257C19.1104 55.8929 29.9998 45.0034 43.4326 45.0034Z" fill="#66A865"/>
<path d="M40.9138 146.547C30.9978 138.303 29.6427 123.581 37.8869 113.665L38.9532 112.382C39.5138 111.708 40.1058 111.075 40.7226 110.48C35.0546 102.095 35.3264 90.6564 42.1223 82.4824L43.1887 81.1998C51.433 71.2838 66.1548 69.9288 76.071 78.1729C81.4341 82.6319 84.2917 88.9858 84.4821 95.4493C90.8717 94.4565 97.6404 96.1061 103.004 100.565C112.92 108.81 114.275 123.531 106.03 133.447L104.964 134.73C97.7946 143.353 85.7272 145.501 76.181 140.493C75.7725 141.089 75.3334 141.671 74.8624 142.238L73.7961 143.521C65.5516 153.436 50.8298 154.792 40.9138 146.547Z" fill="#66A865"/>
<path d="M92.5595 36.896C106.142 36.896 117.152 47.9067 117.152 61.4888V63.2446C117.152 64.1682 117.099 65.08 117 65.9771C127.236 68.9515 134.718 78.3984 134.718 89.5943V91.3511C134.718 104.933 123.708 115.943 110.126 115.943C102.78 115.943 96.1869 112.721 91.6806 107.615C87.1744 112.721 80.5828 115.943 73.2372 115.943C59.6553 115.943 48.6446 104.933 48.6445 91.3511V89.5943C48.6445 77.7831 56.971 67.9175 68.0742 65.5454C68.0039 64.7881 67.9667 64.0204 67.9667 63.2446V61.4888C67.9667 47.9068 78.9775 36.896 92.5595 36.896Z" fill="#66A865"/>
<path d="M82.1856 13.7827C92.4822 18.0455 97.3732 29.8483 93.1105 40.145L92.5592 41.4768C92.2695 42.1765 91.9433 42.8502 91.5868 43.4988C98.414 48.9662 101.122 58.4773 97.6078 66.9653L97.0564 68.2971C92.7938 78.5938 80.9906 83.4855 70.6939 79.2229C65.1248 76.9174 61.1385 72.4055 59.3249 67.1199C54.306 69.577 48.297 69.9509 42.728 67.6455C32.4312 63.3828 27.5394 51.5797 31.8021 41.2829L32.3535 39.9511C36.0604 30.997 45.4692 26.1308 54.6312 27.8172C54.8156 27.2212 55.0283 26.6282 55.2716 26.0404L55.823 24.7086C60.0857 14.4118 71.8888 9.52005 82.1856 13.7827Z" fill="#83C082"/>
<path d="M128.722 73.852C132.457 78.1645 134.718 83.7887 134.718 89.9419V91.6987C134.718 104.894 124.325 115.66 111.278 116.262C111.962 122.356 110.26 128.708 106.03 133.795L104.964 135.078C97.7943 143.701 85.7268 145.848 76.1807 140.84C75.7722 141.436 75.3332 142.019 74.8623 142.585L73.7959 143.868C65.5515 153.784 50.8301 155.139 40.9141 146.895C33.3348 140.593 30.7568 130.507 33.6445 121.675C30.7734 122.868 27.6254 123.53 24.3223 123.53C10.8895 123.53 7.78701e-05 112.64 0 99.2075V97.4702C7.48671e-05 91.2957 2.30059 85.6584 6.0918 81.3696C10.5483 86.4125 17.0634 89.5932 24.3223 89.5932C27.6254 89.5932 30.7734 88.932 33.6445 87.7388C30.7568 96.5705 33.3347 106.657 40.9141 112.958C50.8301 121.203 65.5515 119.847 73.7959 109.931L74.8623 108.649C75.3332 108.083 75.7722 107.499 76.1807 106.904C85.7268 111.912 97.7943 109.764 104.964 101.141L106.03 99.8589C110.26 94.7716 111.962 88.4191 111.278 82.3257C118.241 82.0044 124.447 78.7875 128.722 73.852Z" fill="#458244"/>
</svg>
